<?xml version="1.0" encoding="UTF-8"?>
<svg width="51px" height="51px" viewBox="0 0 51 51" version="1.1" xmlns="http://www.w3.org/2000/svg" xmlns:xlink="http://www.w3.org/1999/xlink">
    <!-- Generator: Sketch 42 (36781) - http://www.bohemiancoding.com/sketch -->
    <title>Agenda</title>
    <desc>Created with Sketch.</desc>
    <defs></defs>
    <g id="Welcome" stroke="none" stroke-width="1" fill="none" fill-rule="evenodd">
        <g id="Desktop-HD" transform="translate(-897.000000, -293.000000)">
            <g id="Dates" transform="translate(892.000000, 178.000000)">
                <g id="Evenement" transform="translate(5.000000, 115.000000)">
                    <path d="M25.5,51 C11.4167389,51 0,39.5832611 0,25.5 C0,11.4167389 11.4167389,0 25.5,0 C39.5832611,0 51,11.4167389 51,25.5 C51,39.5832611 39.5832611,51 25.5,51 Z M31.3074613,13.3269826 L31.3074613,15.8742843 L21.1182543,15.8742843 L21.1182543,13.3269826 L18.5709526,13.3269826 L18.5709526,15.8742843 L17.2973017,15.8742843 C15.8835493,15.8742843 14.7627365,17.0205701 14.7627365,18.4215861 L14.75,36.2526983 C14.75,37.6537142 15.8835493,38.8 17.2973017,38.8 L35.1284139,38.8 C36.5294299,38.8 37.6757157,37.6537142 37.6757157,36.2526983 L37.6757157,18.4215861 C37.6757157,17.0205701 36.5294299,15.8742843 35.1284139,15.8742843 L33.854763,15.8742843 L33.854763,13.3269826 L31.3074613,13.3269826 Z M35.1284139,36.2526983 L17.2973017,36.2526983 L17.2973017,22.2425387 L35.1284139,22.2425387 L35.1284139,36.2526983 Z M32.5811122,27.3371422 L26.2128578,27.3371422 L26.2128578,33.7053965 L32.5811122,33.7053965 L32.5811122,27.3371422 Z" id="Agenda"></path>
                </g>
            </g>
        </g>
    </g>
</svg>