<?xml version="1.0" encoding="UTF-8"?>
<svg width="20px" height="20px" viewBox="0 0 20 20" version="1.1" xmlns="http://www.w3.org/2000/svg" xmlns:xlink="http://www.w3.org/1999/xlink">
    <!-- Generator: Sketch 42 (36781) - http://www.bohemiancoding.com/sketch -->
    <title>Combined Shape</title>
    <desc>Created with Sketch.</desc>
    <defs></defs>
    <g id="Welcome" stroke="none" stroke-width="1" fill="none" fill-rule="evenodd">
        <g id="Desktop-HD" transform="translate(-1398.000000, -15.000000)" fill="#F6D365">
            <g id="Header">
                <g id="Menu" transform="translate(1228.000000, 15.000000)">
                    <path d="M180,20 C174.477153,20 170,15.5228475 170,10 C170,4.4771525 174.477153,0 180,0 C185.522847,0 190,4.4771525 190,10 C190,15.5228475 185.522847,20 180,20 Z M184.8,5 L175.2,5 C174.54,5 174.006,5.5625 174.006,6.25 L174,13.75 C174,14.4375 174.54,15 175.2,15 L184.8,15 C185.46,15 186,14.4375 186,13.75 L186,6.25 C186,5.5625 185.46,5 184.8,5 Z M184.8,7.5 L180,10.625 L175.2,7.5 L175.2,6.25 L180,9.375 L184.8,6.25 L184.8,7.5 Z" id="Combined-Shape"></path>
                </g>
            </g>
        </g>
    </g>
</svg>