<?xml version="1.0" encoding="UTF-8"?>
<svg width="20px" height="20px" viewBox="0 0 20 20" version="1.1" xmlns="http://www.w3.org/2000/svg" xmlns:xlink="http://www.w3.org/1999/xlink">
    <!-- Generator: Sketch 42 (36781) - http://www.bohemiancoding.com/sketch -->
    <title>Combined Shape</title>
    <desc>Created with Sketch.</desc>
    <defs></defs>
    <g id="Welcome" stroke="none" stroke-width="1" fill="none" fill-rule="evenodd">
        <g id="Desktop-HD" transform="translate(-1233.000000, -15.000000)" fill="#F6D365">
            <g id="Header">
                <g id="Menu" transform="translate(1228.000000, 15.000000)">
                    <path d="M15,20 C9.4771525,20 5,15.5228475 5,10 C5,4.4771525 9.4771525,0 15,0 C20.5228475,0 25,4.4771525 25,10 C25,15.5228475 20.5228475,20 15,20 Z M10.2,16.4 C11.9673112,16.4 13.4,14.9673112 13.4,13.2 C13.4,11.4326888 11.9673112,10 10.2,10 C8.4326888,10 7,11.4326888 7,13.2 C7,14.9673112 8.4326888,16.4 10.2,16.4 Z M17,18 C18.1045695,18 19,17.1045695 19,16 C19,14.8954305 18.1045695,14 17,14 C15.8954305,14 15,14.8954305 15,16 C15,17.1045695 15.8954305,18 17,18 Z M17.8,11.6 C20.4509668,11.6 22.6,9.4509668 22.6,6.8 C22.6,4.1490332 20.4509668,2 17.8,2 C15.1490332,2 13,4.1490332 13,6.8 C13,9.4509668 15.1490332,11.6 17.8,11.6 Z" id="Combined-Shape"></path>
                </g>
            </g>
        </g>
    </g>
</svg>