<?xml version="1.0" encoding="UTF-8"?>
<svg width="51px" height="51px" viewBox="0 0 51 51" version="1.1" xmlns="http://www.w3.org/2000/svg" xmlns:xlink="http://www.w3.org/1999/xlink">
    <!-- Generator: Sketch 44.1 (41455) - http://www.bohemiancoding.com/sketch -->
    <title>Combined Shape</title>
    <desc>Created with Sketch.</desc>
    <defs></defs>
    <g id="Welcome" stroke="none" stroke-width="1" fill="none" fill-rule="evenodd">
        <g id="Contact---Desktop" transform="translate(-879.000000, -268.000000)" fill="#F6D365">
            <g id="Dates" transform="translate(874.000000, 158.000000)">
                <g id="Evenement" transform="translate(5.000000, 110.000000)">
                    <path d="M25.5,51 C11.4167389,51 0,39.5832611 0,25.5 C0,11.4167389 11.4167389,0 25.5,0 C39.5832611,0 51,11.4167389 51,25.5 C51,39.5832611 39.5832611,51 25.5,51 Z M20.5499475,22.2269901 L16.7689598,22.2269901 C16.6011535,22.2269901 16.465183,22.3630213 16.465183,22.5307668 L16.465183,34.6774625 C16.465183,34.8452688 16.6011535,34.9812392 16.7689598,34.9812392 L20.5499475,34.9812392 C20.7177538,34.9812392 20.8537242,34.8452688 20.8537242,34.6774625 L20.8537242,22.5307668 C20.8537242,22.3630213 20.7177538,22.2269901 20.5499475,22.2269901 Z M18.6608206,16.1885766 C17.2850765,16.1885766 16.1658414,17.3065965 16.1658414,18.6808218 C16.1658414,20.0556546 17.2850765,21.1740998 18.6608206,21.1740998 C20.0354712,21.1740998 21.1537949,20.0555938 21.1537949,18.6808218 C21.1538557,17.3065965 20.0354712,16.1885766 18.6608206,16.1885766 Z M30.1671549,21.9250967 C28.6485749,21.9250967 27.5259983,22.577913 26.8451131,23.319675 L26.8451131,22.5307668 C26.8451131,22.3630213 26.7091426,22.2269901 26.5413364,22.2269901 L22.9203782,22.2269901 C22.752572,22.2269901 22.6166015,22.3630213 22.6166015,22.5307668 L22.6166015,34.6774625 C22.6166015,34.8452688 22.752572,34.9812392 22.9203782,34.9812392 L26.6931032,34.9812392 C26.8609095,34.9812392 26.99688,34.8452688 26.99688,34.6774625 L26.99688,28.6676648 C26.99688,26.6425067 27.5469589,25.8535377 28.9586702,25.8535377 C30.4961451,25.8535377 30.6183241,27.1183426 30.6183241,28.7718602 L30.6183241,34.6775232 C30.6183241,34.8453295 30.7542946,34.9813 30.9221009,34.9813 L34.6962232,34.9813 C34.8640295,34.9813 35,34.8453295 35,34.6775232 L35,28.0148485 C35,25.0035096 34.4258012,21.9250967 30.1671549,21.9250967 Z" id="Combined-Shape"></path>
                </g>
            </g>
        </g>
    </g>
</svg>