<?xml version="1.0" standalone="no"?>
<!DOCTYPE svg PUBLIC "-//W3C//DTD SVG 20010904//EN"
 "http://www.w3.org/TR/2001/REC-SVG-20010904/DTD/svg10.dtd">
<svg version="1.0" xmlns="http://www.w3.org/2000/svg"
 width="700.000000pt" height="700.000000pt" viewBox="0 0 700.000000 700.000000"
 preserveAspectRatio="xMidYMid meet">
<metadata>
Created by potrace 1.11, written by Peter Selinger 2001-2013
</metadata>
<g transform="translate(0.000000,700.000000) scale(0.100000,-0.100000)"
fill="#000000" stroke="none">
<path d="M3298 6995 c-2 -1 -41 -5 -88 -9 -100 -7 -225 -22 -295 -36 -27 -5
-61 -12 -75 -14 -596 -109 -1206 -409 -1660 -817 -126 -114 -178 -166 -331
-335 -107 -118 -286 -370 -386 -545 -158 -274 -309 -656 -369 -932 -20 -90
-53 -272 -59 -322 -4 -33 -9 -69 -11 -80 -18 -95 -25 -522 -12 -690 8 -104 25
-233 42 -320 2 -11 6 -36 10 -55 49 -272 156 -595 283 -857 415 -858 1166
-1517 2058 -1806 93 -30 163 -51 210 -63 48 -12 154 -37 170 -40 101 -20 186
-35 238 -40 34 -3 65 -8 68 -9 15 -10 227 -20 409 -20 188 0 341 8 430 21 144
21 295 48 345 61 33 8 67 16 75 18 109 22 388 117 549 187 121 53 308 148 353
179 14 11 29 19 33 19 25 0 384 257 494 354 121 106 294 279 366 366 21 25 41
47 44 50 4 3 45 55 91 115 332 437 547 915 654 1456 14 70 28 155 32 190 3 35
8 67 10 70 9 17 19 214 18 399 0 184 -5 307 -18 410 -2 19 -7 58 -10 86 -4 28
-8 59 -10 70 -2 10 -11 60 -21 109 -200 1072 -924 2010 -1921 2491 -265 127
-624 243 -891 288 -48 8 -235 35 -293 41 -56 7 -526 16 -532 10z m1399 -708
c4 -3 31 -8 58 -11 68 -9 225 -51 310 -83 118 -44 358 -170 385 -202 3 -3 32
-26 65 -51 128 -95 311 -300 399 -446 84 -141 152 -301 191 -454 18 -70 19
-71 36 -175 15 -90 19 -341 8 -425 -5 -36 -12 -83 -15 -105 -3 -22 -16 -83
-29 -135 -135 -530 -541 -975 -1060 -1161 -85 -30 -214 -64 -280 -73 -22 -3
-51 -8 -65 -11 -43 -10 -342 -13 -405 -4 -33 5 -80 12 -104 15 -56 8 -228 55
-303 82 -336 126 -657 392 -842 700 -82 136 -160 321 -190 449 -7 34 -16 65
-19 70 -3 4 -8 37 -12 73 -4 36 -10 69 -13 74 -9 15 -10 306 -1 376 4 36 11
85 14 110 22 168 115 417 219 590 130 214 342 427 558 562 170 105 421 198
608 224 25 4 68 10 95 14 55 7 378 5 392 -3z m-2672 -2807 c28 -6 61 -14 74
-16 53 -10 168 -56 246 -98 274 -145 476 -398 556 -696 25 -93 36 -198 34
-315 -3 -132 -17 -220 -51 -323 -35 -106 -120 -269 -160 -309 -8 -8 -14 -18
-14 -23 0 -18 -190 -198 -255 -241 -212 -141 -409 -199 -660 -194 -190 3 -333
40 -505 131 -366 194 -596 586 -585 998 5 208 37 335 128 510 159 306 477 532
817 581 25 4 46 8 48 10 8 8 284 -4 327 -15z m2310 -1393 c260 -62 450 -231
529 -469 24 -74 28 -97 31 -198 7 -235 -90 -436 -280 -580 -99 -75 -181 -109
-315 -131 -209 -34 -445 44 -592 197 -111 115 -159 204 -196 364 -8 33 -8 217
0 255 49 249 213 443 453 535 30 12 41 15 125 30 44 9 205 6 245 -3z"/>
</g>
</svg>
